 http://www.imdb.com/title/tt0064665/

Source: Midnight.Cowboy.1969.720p.BluRay.X264-AMIABLE

Subs: Arabic, Brazilian, Danish, Dutch, English, Finnish, French, German, Hungarian, Italian, Norwegian, Romanian, Russian, Spanish, Swedish and Vietnamese.

Sample and Screens included.

General
Complete name                    : Midnight Cowboy-720p MP4 AAC x264 BRRip 1969-CC.mp4
Format                           : MPEG-4
Format profile                   : Base Media
Codec ID                         : isom
File size                        : 2.07 GiB
Duration                         : 1h 53mn
Overall bit rate                 : 2 616 Kbps
Encoded date                     : UTC 2012-06-19 16:56:33

Video
ID                               : 1
Format                           : AVC
Format/Info                      : Advanced Video Codec
Format profile                   : High@L3.1
Format settings, CABAC           : Yes
Format settings, ReFrames        : 5 frames
Codec ID                         : avc1
Codec ID/Info                    : Advanced Video Coding
Duration                         : 1h 53mn
Bit rate mode                    : Variable
Bit rate                         : 2 228 Kbps
Nominal bit rate                 : 2 251 Kbps
Maximum bit rate                 : 11.9 Mbps
Width                            : 1 280 pixels
Height                           : 688 pixels
Display aspect ratio             : 16:9
Frame rate mode                  : Variable
Frame rate                       : 23.976 fps
Minimum frame rate               : 23.256 fps
Maximum frame rate               : 25.000 fps
Resolution                       : 24 bits
Colorimetry                      : 4:2:0
Scan type                        : Progressive
Bits/(Pixel*Frame)               : 0.105
Stream size                      : 1.76 GiB (85%)
Writing library                  : x264 core 112

Audio
ID                               : 2
Format                           : AAC
Format/Info                      : Advanced Audio Codec
Format version                   : Version 4
Format profile                   : LC
Format settings, SBR             : No
Codec ID                         : 40
Duration                         : 1h 53mn
Bit rate mode                    : Variable
Bit rate                         : 384 Kbps
Maximum bit rate                 : 655 Kbps
Channel(s)                       : 6 channels
Channel positions                : Front: L C R, Rear: L R, LFE
Sampling rate                    : 48.0 KHz
Resolution                       : 16 bits
Stream size                      : 311 MiB (15%)
Language                         : English

Enjoy...

Requested by DreamExtractor and varuneric ( more is coming )